<?xml version="1.0" encoding="iso-8859-1"?>
<!-- Generator: Adobe Illustrator 19.0.0, SVG Export Plug-In . SVG Version: 6.00 Build 0)  -->
<svg version="1.1" id="Capa_1" xmlns="http://www.w3.org/2000/svg" xmlns:xlink="http://www.w3.org/1999/xlink" x="0px" y="0px"
	 viewBox="0 0 490.667 490.667" style="enable-background:new 0 0 490.667 490.667;" xml:space="preserve">
<g>
	<g>
		<path d="M74.667,64H32c-5.888,0-10.667,4.779-10.667,10.667S26.112,85.333,32,85.333h42.667c5.888,0,10.667-4.779,10.667-10.667
			S80.555,64,74.667,64z"/>
	</g>
</g>
<g>
	<g>
		<path d="M74.667,149.333H32c-5.888,0-10.667,4.779-10.667,10.667S26.112,170.667,32,170.667h42.667
			c5.888,0,10.667-4.779,10.667-10.667S80.555,149.333,74.667,149.333z"/>
	</g>
</g>
<g>
	<g>
		<path d="M74.667,234.667H32c-5.888,0-10.667,4.779-10.667,10.667S26.112,256,32,256h42.667c5.888,0,10.667-4.779,10.667-10.667
			S80.555,234.667,74.667,234.667z"/>
	</g>
</g>
<g>
	<g>
		<path d="M74.667,320H32c-5.888,0-10.667,4.779-10.667,10.667S26.112,341.333,32,341.333h42.667
			c5.888,0,10.667-4.779,10.667-10.667S80.555,320,74.667,320z"/>
	</g>
</g>
<g>
	<g>
		<path d="M74.667,405.333H32c-5.888,0-10.667,4.779-10.667,10.667c0,5.888,4.779,10.667,10.667,10.667h42.667
			c5.888,0,10.667-4.779,10.667-10.667C85.333,410.112,80.555,405.333,74.667,405.333z"/>
	</g>
</g>
<g>
	<g>
		<path d="M416,0H96C66.603,0,42.667,23.936,42.667,53.333v384c0,29.397,23.936,53.333,53.333,53.333h320
			c29.397,0,53.333-23.936,53.333-53.333v-384C469.333,23.936,445.397,0,416,0z M448,437.333c0,17.643-14.357,32-32,32H96
			c-17.643,0-32-14.357-32-32v-384c0-17.643,14.357-32,32-32h320c17.643,0,32,14.357,32,32V437.333z"/>
	</g>
</g>
<g>
	<g>
		<path d="M162.453,149.611c-4.821-1.131-9.792,1.173-11.989,5.632l-11.797,23.573l-11.797-23.595
			c-2.219-4.437-7.232-6.72-11.989-5.611c-4.8,1.131-8.213,5.44-8.213,10.389v85.333c0,5.888,4.779,10.667,10.667,10.667
			S128,251.221,128,245.333v-40.149l1.109,2.261c3.627,7.232,15.467,7.232,19.093,0l1.131-2.261v40.149
			c0,5.888,4.779,10.667,10.667,10.667s10.667-4.779,10.667-10.667V160C170.667,155.051,167.253,150.741,162.453,149.611z"/>
	</g>
</g>
<g>
	<g>
		<path d="M245.333,234.667h-32v-64h32c5.888,0,10.667-4.779,10.667-10.667s-4.779-10.667-10.667-10.667h-42.667
			c-5.888,0-10.667,4.779-10.667,10.667v85.333c0,5.888,4.779,10.667,10.667,10.667h42.667c5.888,0,10.667-4.779,10.667-10.667
			S251.221,234.667,245.333,234.667z"/>
	</g>
</g>
<g>
	<g>
		<path d="M234.667,192h-32c-5.888,0-10.667,4.779-10.667,10.667s4.779,10.667,10.667,10.667h32c5.888,0,10.667-4.779,10.667-10.667
			S240.555,192,234.667,192z"/>
	</g>
</g>
<g>
	<g>
		<path d="M330.667,149.333c-5.888,0-10.667,4.779-10.667,10.667v40.149l-22.464-44.928c-2.219-4.437-7.253-6.72-11.989-5.611
			c-4.8,1.131-8.213,5.44-8.213,10.389v85.333c0,5.888,4.779,10.667,10.667,10.667s10.667-4.779,10.667-10.667v-40.149
			l22.464,44.928c1.835,3.669,5.568,5.888,9.536,5.888c0.811,0,1.643-0.085,2.453-0.277c4.8-1.131,8.213-5.44,8.213-10.389V160
			C341.333,154.112,336.555,149.333,330.667,149.333z"/>
	</g>
</g>
<g>
	<g>
		<path d="M416,149.333c-5.888,0-10.667,4.779-10.667,10.667v64c0,5.888-4.779,10.667-10.667,10.667S384,229.888,384,224v-64
			c0-5.888-4.779-10.667-10.667-10.667c-5.888,0-10.667,4.779-10.667,10.667v64c0,17.643,14.357,32,32,32s32-14.357,32-32v-64
			C426.667,154.112,421.888,149.333,416,149.333z"/>
	</g>
</g>
<g>
</g>
<g>
</g>
<g>
</g>
<g>
</g>
<g>
</g>
<g>
</g>
<g>
</g>
<g>
</g>
<g>
</g>
<g>
</g>
<g>
</g>
<g>
</g>
<g>
</g>
<g>
</g>
<g>
</g>
</svg>
